HIERARCHY
ROOT Hips
{
	OFFSET 0.000000 71.427986 0.000000
	CHANNELS 6 Xposition Yposition Zposition Xrotation Yrotation Zrotation
	JOINT Pelvis
	{
		OFFSET 0.000000 0.000000 0.000000
		CHANNELS 3 Xrotation Yrotation Zrotation
		JOINT LeftUpLeg
		{
			OFFSET 6.797100 -2.508499 -1.318700
			CHANNELS 3 Xrotation Yrotation Zrotation
			JOINT LeftLeg
			{
				OFFSET 0.069008 -29.241863 0.690200
				CHANNELS 3 Xrotation Yrotation Zrotation
				JOINT LeftFoot
				{
					OFFSET -0.069008 -29.568123 -0.266800
					CHANNELS 3 Xrotation Yrotation Zrotation
					JOINT LeftToeBase
					{
						OFFSET 3.145500 -8.631000 16.059900
						CHANNELS 3 Xrotation Yrotation Zrotation
						End Site
						{
							OFFSET 0.000000 18.501587 0.000000
						}
					}
				}
			}
			JOINT Left_ShortSleeve
			{
				OFFSET 0.265923 -10.480953 1.153800
				CHANNELS 3 Xrotation Yrotation Zrotation
				End Site
				{
					OFFSET 1.725763 19.823879 0.000000
				}
			}
		}
		JOINT RightUpLeg
		{
			OFFSET -6.797100 -2.508499 -1.318700
			CHANNELS 3 Xrotation Yrotation Zrotation
			JOINT RightLeg
			{
				OFFSET -0.082453 -29.241932 0.688000
				CHANNELS 3 Xrotation Yrotation Zrotation
				JOINT RightFoot
				{
					OFFSET 0.082453 -29.568058 -0.264600
					CHANNELS 3 Xrotation Yrotation Zrotation
					JOINT RightToeBase
					{
						OFFSET -3.115300 -8.682800 16.113400
						CHANNELS 3 Xrotation Yrotation Zrotation
						End Site
						{
							OFFSET 0.000000 18.567114 0.000000
						}
					}
				}
			}
			JOINT Right_ShortSleeve
			{
				OFFSET -0.265923 -10.480953 1.153800
				CHANNELS 3 Xrotation Yrotation Zrotation
				End Site
				{
					OFFSET -1.725766 19.823910 0.000000
				}
			}
		}
	}
	JOINT Spine
	{
		OFFSET 0.000000 13.368103 0.470500
		CHANNELS 3 Xrotation Yrotation Zrotation
		JOINT Spine1
		{
			OFFSET 0.147000 13.837402 0.538800
			CHANNELS 3 Xrotation Yrotation Zrotation
			JOINT Spine2
			{
				OFFSET 0.168000 16.242897 -1.435500
				CHANNELS 3 Xrotation Yrotation Zrotation
				JOINT Neck
				{
					OFFSET 0.217200 18.631500 -1.679100
					CHANNELS 3 Xrotation Yrotation Zrotation
					JOINT Head
					{
						OFFSET 0.000000 6.599396 1.385900
						CHANNELS 3 Xrotation Yrotation Zrotation
						JOINT Hat
						{
							OFFSET -0.532200 27.220596 -10.096100
							CHANNELS 3 Xrotation Yrotation Zrotation
							End Site
							{
								OFFSET 0.000000 22.029861 0.000000
							}
						}
						JOINT HairD
						{
							OFFSET -10.777400 17.437393 -1.325900
							CHANNELS 3 Xrotation Yrotation Zrotation
							JOINT HairD1
							{
								OFFSET -3.290299 -11.051193 1.062200
								CHANNELS 3 Xrotation Yrotation Zrotation
								End Site
								{
									OFFSET 0.000000 11.579437 0.000000
								}
							}
						}
						JOINT HairB
						{
							OFFSET -10.777400 17.437393 1.467900
							CHANNELS 3 Xrotation Yrotation Zrotation
							JOINT HairB1
							{
								OFFSET -1.561200 -12.956299 3.590200
								CHANNELS 3 Xrotation Yrotation Zrotation
								End Site
								{
									OFFSET 0.000000 13.534866 0.000000
								}
							}
						}
						JOINT HairA
						{
							OFFSET 9.713100 17.437393 1.467900
							CHANNELS 3 Xrotation Yrotation Zrotation
							JOINT HairA1
							{
								OFFSET 1.561200 -12.956299 3.590200
								CHANNELS 3 Xrotation Yrotation Zrotation
								End Site
								{
									OFFSET 0.000000 13.534866 0.000000
								}
							}
						}
						JOINT HairC
						{
							OFFSET 9.713100 17.437393 -1.325900
							CHANNELS 3 Xrotation Yrotation Zrotation
							JOINT HairC1
							{
								OFFSET 3.290300 -11.051193 1.062200
								CHANNELS 3 Xrotation Yrotation Zrotation
								End Site
								{
									OFFSET 0.000000 11.579437 0.000000
								}
							}
						}
					}
				}
				JOINT LeftShoulder
				{
					OFFSET 5.101800 15.108002 -2.763700
					CHANNELS 3 Xrotation Yrotation Zrotation
					JOINT LeftArm
					{
						OFFSET 9.825497 2.506317 -1.597400
						CHANNELS 3 Xrotation Yrotation Zrotation
						JOINT LeftForeArm
						{
							OFFSET 21.966244 0.000000 0.000000
							CHANNELS 3 Xrotation Yrotation Zrotation
							JOINT LeftHand
							{
								OFFSET 33.879036 0.000000 0.000000
								CHANNELS 3 Xrotation Yrotation Zrotation
								JOINT LeftHandThumb1
								{
									OFFSET 6.715286 -2.359680 3.363841
									CHANNELS 3 Xrotation Yrotation Zrotation
									JOINT LeftHandThumb2
									{
										OFFSET 2.507072 -1.447464 1.447461
										CHANNELS 3 Xrotation Yrotation Zrotation
										JOINT LeftHandThumb3
										{
											OFFSET 2.898338 -1.673355 1.673357
											CHANNELS 3 Xrotation Yrotation Zrotation
											End Site
											{
												OFFSET -0.295959 3.727692 -0.131651
											}
										}
									}
								}
								JOINT LeftHandIndex1
								{
									OFFSET 14.190811 -0.254547 3.840278
									CHANNELS 3 Xrotation Yrotation Zrotation
									JOINT LeftHandIndex2
									{
										OFFSET 3.551727 0.000000 -0.000000
										CHANNELS 3 Xrotation Yrotation Zrotation
										JOINT LeftHandIndex3
										{
											OFFSET 2.894196 0.000000 0.000000
											CHANNELS 3 Xrotation Yrotation Zrotation
											End Site
											{
												OFFSET -1.000603 2.690872 0.366626
											}
										}
									}
								}
								JOINT LeftHandMiddle1
								{
									OFFSET 13.776489 0.000000 0.000000
									CHANNELS 3 Xrotation Yrotation Zrotation
									JOINT LeftHandMiddle2
									{
										OFFSET 3.438232 0.000000 0.000000
										CHANNELS 3 Xrotation Yrotation Zrotation
										JOINT LeftHandMiddle3
										{
											OFFSET 3.691551 0.000000 0.000000
											CHANNELS 3 Xrotation Yrotation Zrotation
											End Site
											{
												OFFSET -1.082298 3.499527 0.457670
											}
										}
									}
								}
								JOINT LeftHandRing1
								{
									OFFSET 13.966164 -0.268127 -3.067488
									CHANNELS 3 Xrotation Yrotation Zrotation
									JOINT LeftHandRing2
									{
										OFFSET 3.162567 0.000000 0.000000
										CHANNELS 3 Xrotation Yrotation Zrotation
										JOINT LeftHandRing3
										{
											OFFSET 3.324348 0.000000 0.000000
											CHANNELS 3 Xrotation Yrotation Zrotation
											End Site
											{
												OFFSET -0.861900 3.184998 0.405154
											}
										}
									}
								}
								JOINT LeftHandPinky1
								{
									OFFSET 13.131393 -0.168503 -5.746925
									CHANNELS 3 Xrotation Yrotation Zrotation
									JOINT LeftHandPinky2
									{
										OFFSET 2.849182 0.000000 0.000000
										CHANNELS 3 Xrotation Yrotation Zrotation
										JOINT LeftHandPinky3
										{
											OFFSET 2.805038 0.000000 0.000000
											CHANNELS 3 Xrotation Yrotation Zrotation
											End Site
											{
												OFFSET -0.882500 2.642609 0.325652
											}
										}
									}
								}
							}
							JOINT Left_Sleeve
							{
								OFFSET 6.592125 -0.646545 0.805568
								CHANNELS 3 Xrotation Yrotation Zrotation
								End Site
								{
									OFFSET -0.000179 20.275787 -0.000000
								}
							}
						}
					}
				}
				JOINT RightShoulder
				{
					OFFSET -5.731700 15.108002 -2.763700
					CHANNELS 3 Xrotation Yrotation Zrotation
					JOINT RightArm
					{
						OFFSET -9.825497 2.506317 -1.597400
						CHANNELS 3 Xrotation Yrotation Zrotation
						JOINT RightForeArm
						{
							OFFSET -21.966242 0.000000 0.000000
							CHANNELS 3 Xrotation Yrotation Zrotation
							JOINT RightHand
							{
								OFFSET -33.879032 0.000000 0.000000
								CHANNELS 3 Xrotation Yrotation Zrotation
								JOINT RightHandThumb1
								{
									OFFSET -6.715286 -2.359680 3.363841
									CHANNELS 3 Xrotation Yrotation Zrotation
									JOINT RightHandThumb2
									{
										OFFSET -2.507072 -1.447464 1.447461
										CHANNELS 3 Xrotation Yrotation Zrotation
										JOINT RightHandThumb3
										{
											OFFSET -2.898338 -1.673355 1.673357
											CHANNELS 3 Xrotation Yrotation Zrotation
											End Site
											{
												OFFSET 0.295959 3.727692 -0.131651
											}
										}
									}
								}
								JOINT RightHandIndex1
								{
									OFFSET -14.190811 -0.254547 3.840278
									CHANNELS 3 Xrotation Yrotation Zrotation
									JOINT RightHandIndex2
									{
										OFFSET -3.551727 0.000000 -0.000000
										CHANNELS 3 Xrotation Yrotation Zrotation
										JOINT RightHandIndex3
										{
											OFFSET -2.894196 0.000000 0.000000
											CHANNELS 3 Xrotation Yrotation Zrotation
											End Site
											{
												OFFSET 1.000603 2.690872 0.366626
											}
										}
									}
								}
								JOINT RightHandMiddle1
								{
									OFFSET -13.776489 0.000000 0.000000
									CHANNELS 3 Xrotation Yrotation Zrotation
									JOINT RightHandMiddle2
									{
										OFFSET -3.438232 0.000000 0.000000
										CHANNELS 3 Xrotation Yrotation Zrotation
										JOINT RightHandMiddle3
										{
											OFFSET -3.691551 0.000000 0.000000
											CHANNELS 3 Xrotation Yrotation Zrotation
											End Site
											{
												OFFSET 1.082298 3.499527 0.457670
											}
										}
									}
								}
								JOINT RightHandRing1
								{
									OFFSET -13.966164 -0.268127 -3.067488
									CHANNELS 3 Xrotation Yrotation Zrotation
									JOINT RightHandRing2
									{
										OFFSET -3.162567 0.000000 0.000000
										CHANNELS 3 Xrotation Yrotation Zrotation
										JOINT RightHandRing3
										{
											OFFSET -3.324348 0.000000 0.000000
											CHANNELS 3 Xrotation Yrotation Zrotation
											End Site
											{
												OFFSET 0.861900 3.184998 0.405154
											}
										}
									}
								}
								JOINT RightHandPinky1
								{
									OFFSET -13.131393 -0.168503 -5.746925
									CHANNELS 3 Xrotation Yrotation Zrotation
									JOINT RightHandPinky2
									{
										OFFSET -2.849182 0.000000 0.000000
										CHANNELS 3 Xrotation Yrotation Zrotation
										JOINT RightHandPinky3
										{
											OFFSET -2.805038 0.000000 0.000000
											CHANNELS 3 Xrotation Yrotation Zrotation
											End Site
											{
												OFFSET 0.882500 2.642609 0.325652
											}
										}
									}
								}
							}
							JOINT Right_Sleeve
							{
								OFFSET -6.592125 -0.646545 0.805568
								CHANNELS 3 Xrotation Yrotation Zrotation
								End Site
								{
									OFFSET 0.000179 20.275787 -0.000000
								}
							}
						}
					}
				}
				JOINT Bind_Right_JacketString
				{
					OFFSET -3.534800 11.969597 7.200700
					CHANNELS 3 Xrotation Yrotation Zrotation
					JOINT Bind_Right_JacketString1
					{
						OFFSET -0.319900 -6.102600 2.794100
						CHANNELS 3 Xrotation Yrotation Zrotation
						End Site
						{
							OFFSET 0.000000 6.719452 0.000000
						}
					}
				}
				JOINT Bind_Left_JacketString
				{
					OFFSET 2.904800 11.969597 7.200700
					CHANNELS 3 Xrotation Yrotation Zrotation
					JOINT Bind_Left_JacketString1
					{
						OFFSET 0.364800 -5.904503 3.186800
						CHANNELS 3 Xrotation Yrotation Zrotation
						End Site
						{
							OFFSET 0.000000 6.719513 0.000000
						}
					}
				}
				JOINT HairE
				{
					OFFSET 5.915200 17.612701 -11.592200
					CHANNELS 3 Xrotation Yrotation Zrotation
					JOINT HairE1
					{
						OFFSET 0.289200 -7.171898 -1.284500
						CHANNELS 3 Xrotation Yrotation Zrotation
						End Site
						{
							OFFSET 0.000000 7.291756 0.000000
						}
					}
				}
				JOINT HairF
				{
					OFFSET -0.864800 17.612701 -11.592200
					CHANNELS 3 Xrotation Yrotation Zrotation
					JOINT HairF1
					{
						OFFSET 0.000000 -14.087097 -2.127501
						CHANNELS 3 Xrotation Yrotation Zrotation
						End Site
						{
							OFFSET 0.000000 14.246841 0.000000
						}
					}
				}
				JOINT HairG
				{
					OFFSET -8.087700 17.612701 -11.592200
					CHANNELS 3 Xrotation Yrotation Zrotation
					JOINT HairG1
					{
						OFFSET -0.293600 -6.081398 -0.910100
						CHANNELS 3 Xrotation Yrotation Zrotation
						End Site
						{
							OFFSET 0.000000 6.156120 0.000000
						}
					}
				}
			}
		}
	}
	JOINT Pouch
	{
		OFFSET 0.000000 4.394501 10.847300
		CHANNELS 3 Xrotation Yrotation Zrotation
		End Site
		{
			OFFSET 0.000000 21.880577 0.000000
		}
	}
	JOINT Bag
	{
		OFFSET -13.229000 4.813004 -0.593300
		CHANNELS 3 Xrotation Yrotation Zrotation
		End Site
		{
			OFFSET 0.000000 21.880577 0.000000
		}
	}
	JOINT OccupyGuyFacialAnim_Joint
	{
		OFFSET 1.000000 -70.206398 -1.655000
		CHANNELS 3 Xrotation Yrotation Zrotation
		End Site
		{
			OFFSET 0.000000 21.880577 0.000000
		}
	}
}
MOTION
Frames: 4
Frame Time: 0.033333
1.235596 35.017876 -1.425644 46.316602 -51.441505 36.110893 0.000001 0.000000 -0.000000 -106.041815 -22.938699 37.617625 115.027858 -19.504068 0.891770 -29.050516 -5.662143 -15.100640 0.000000 0.000003 -0.000000 -0.000000 -0.000000 -0.000000 -119.697945 -0.786365 -30.469570 128.887582 3.855188 -2.594464 -27.383958 -3.055806 0.643499 0.000000 0.000000 -0.000000 -0.000000 0.000000 0.000001 2.646991 -0.752552 -1.146424 7.228075 -2.252030 -2.820680 7.247537 -2.278663 -2.772265 9.811786 26.382296 -15.236800 -43.088610 24.447023 4.033905 0.000001 -0.000000 -0.000000 0.000001 -0.000000 -0.000000 0.000001 -0.000000 0.000000 0.000001 -0.000000 -0.000001 -0.000000 -0.000000 -0.000001 0.000001 -0.000000 -0.000001 -0.000000 -0.000000 -0.000001 0.000001 -0.000000 -0.000000 0.000001 -0.000000 -0.000000 10.204633 -6.969510 -9.830904 -72.085188 -12.593089 -29.786615 34.612609 -15.570010 13.993287 5.762414 -10.245190 -2.938430 40.109883 -15.297199 -0.360543 5.639919 28.098218 11.338831 -0.000000 0.000001 0.000001 6.882175 2.840109 -61.140554 8.248004 7.639995 -89.898000 0.000000 -0.000001 -0.000000 -2.345647 4.688967 -62.655299 8.754034 9.897112 -87.051253 -0.000000 -0.000001 0.000001 -9.042475 10.045706 -60.766205 8.524056 9.508786 -66.893206 -0.000002 0.000001 0.000000 -17.946855 14.755131 -51.486096 8.857214 8.678408 -84.811682 -0.000000 -0.000000 -0.000001 0.000001 -0.000000 0.000001 9.101637 15.950437 26.233278 1.038069 0.919968 19.326493 -6.974294 21.049036 4.014699 -3.855757 0.308341 3.787670 -2.152265 -6.381651 10.664474 2.290390 -23.596920 -8.732704 -0.000002 -0.000001 0.000000 -0.037718 0.540342 1.563245 0.033968 -0.089257 5.885559 0.000000 0.000003 0.000001 0.336514 -5.914254 3.965665 1.411700 -4.226827 24.704675 0.000000 -0.000000 0.000004 1.204283 -11.743289 5.298018 1.801190 -3.766301 28.010432 -0.000002 -0.000002 -0.000006 2.122035 -19.146760 11.317983 3.343066 -2.133911 18.617327 -0.000001 0.000003 0.000001 -0.000002 0.000001 -0.000001 -0.000001 0.000000 -0.000002 -0.000001 -0.000001 0.000001 -0.000001 0.000000 -0.000001 -0.000001 0.000000 -0.000001 -0.000001 0.000000 -0.000002 -0.000001 -0.000001 0.000001 -0.000001 0.000000 -0.000001 -0.000001 0.000000 -0.000001 -0.000001 0.000000 -0.000002 -0.000001 -0.000001 0.000001 0.000001 0.000000 -0.000000 0.000001 0.000000 -0.000000 0.000001 0.000000 -0.000000 
1.236677 34.993458 -1.436417 46.287113 -51.427124 36.102631 0.000001 0.000001 0.000000 -106.074819 -22.961897 37.604932 115.048116 -19.519274 0.890690 -29.027194 -5.660629 -15.115147 -0.000000 -0.000000 -0.000000 -0.000000 -0.000000 -0.000001 -119.751180 -0.748275 -30.469631 128.939573 3.834634 -2.592492 -27.377073 -3.052649 0.636713 -0.000001 0.000000 -0.000000 -0.000000 0.000000 0.000000 2.688429 -0.755564 -1.147295 7.228861 -2.244781 -2.832276 7.247673 -2.274155 -2.795526 9.795913 26.381114 -15.204466 -43.172024 24.469382 4.003719 -0.000000 0.000000 -0.000000 -0.000000 0.000000 -0.000000 -0.000000 0.000000 0.000001 -0.000000 0.000000 0.000001 -0.000000 -0.000001 0.000001 -0.000000 0.000000 0.000001 -0.000000 -0.000001 0.000001 -0.000000 0.000000 -0.000000 -0.000000 0.000000 -0.000000 10.215294 -6.987756 -9.800440 -72.155949 -12.586236 -29.775093 34.594143 -15.572584 13.991786 5.753605 -10.214530 -2.935964 40.109883 -15.297199 -0.360542 5.639918 28.098220 11.338835 -0.000002 -0.000001 -0.000000 6.882177 2.840107 -61.140554 8.248008 7.639993 -89.898000 -0.000001 0.000003 -0.000001 -2.345643 4.688968 -62.655306 8.754030 9.897111 -87.051253 -0.000001 0.000001 0.000001 -9.042475 10.045706 -60.766205 8.524055 9.508783 -66.893206 -0.000000 0.000000 -0.000002 -17.946853 14.755131 -51.486085 8.857215 8.678406 -84.811682 -0.000002 -0.000001 -0.000001 0.000001 -0.000002 0.000001 9.113753 16.009878 26.250157 1.067404 0.968962 19.259330 -6.900903 21.046012 3.990531 -3.895868 0.297614 3.818463 -2.145991 -6.394297 10.662345 2.288273 -23.590818 -8.730796 -0.000000 0.000000 0.000000 -0.039439 0.540063 1.612952 0.032535 -0.087285 5.928147 0.000001 0.000004 0.000003 0.336183 -5.914949 4.038729 1.409874 -4.226591 24.696408 0.000002 0.000000 -0.000001 1.203800 -11.743996 5.358534 1.801950 -3.766236 28.071632 -0.000001 -0.000003 -0.000003 2.121997 -19.147845 11.316622 3.343200 -2.133845 18.905854 -0.000001 0.000002 0.000001 0.000001 0.000001 0.000000 0.000002 -0.000001 -0.000001 0.000004 0.000001 -0.000000 0.000002 -0.000001 -0.000000 0.000002 -0.000001 -0.000000 0.000002 -0.000001 -0.000001 0.000004 0.000001 -0.000000 0.000002 -0.000001 -0.000000 0.000002 -0.000001 -0.000000 0.000002 -0.000001 -0.000001 0.000004 0.000001 -0.000000 0.000001 0.000001 0.000000 0.000001 0.000001 0.000000 0.000001 0.000001 0.000000 
1.231869 34.976456 -1.443043 46.269037 -51.415434 36.098929 0.000001 -0.000002 0.000001 -106.089879 -22.975896 37.600919 115.062337 -19.536817 0.889517 -29.019138 -5.657247 -15.127360 0.000000 0.000001 -0.000000 -0.000001 -0.000003 -0.000002 -119.786136 -0.720685 -30.469942 128.983751 3.821316 -2.591787 -27.376465 -3.051355 0.634363 -0.000000 0.000000 -0.000000 0.000000 0.000000 0.000000 2.720018 -0.757861 -1.148400 7.229865 -2.235214 -2.840707 7.248125 -2.266583 -2.811946 9.786831 26.379746 -15.184612 -43.248310 24.486718 3.979911 0.000000 -0.000000 0.000000 0.000000 -0.000000 0.000000 0.000000 -0.000000 0.000001 0.000000 -0.000000 0.000001 0.000000 -0.000000 0.000001 0.000000 -0.000000 0.000001 0.000000 -0.000000 0.000001 0.000000 -0.000000 0.000000 0.000000 -0.000000 0.000000 10.227569 -6.999498 -9.777510 -72.207121 -12.580689 -29.769130 34.590093 -15.574001 14.000950 5.751173 -10.195663 -2.934718 40.109883 -15.297199 -0.360540 5.639917 28.098213 11.338835 -0.000001 0.000005 0.000001 6.882178 2.840107 -61.140554 8.248002 7.639994 -89.898000 0.000002 -0.000003 0.000001 -2.345646 4.688971 -62.655306 8.754032 9.897110 -87.051253 -0.000001 -0.000002 0.000000 -9.042475 10.045711 -60.766205 8.524054 9.508782 -66.893213 0.000001 -0.000001 -0.000002 -17.946857 14.755131 -51.486082 8.857215 8.678411 -84.811682 0.000002 -0.000000 0.000003 0.000001 0.000000 -0.000002 9.128656 16.066029 26.262685 1.102068 1.015850 19.204745 -6.824231 21.049492 3.969269 -3.936589 0.290029 3.841158 -2.141427 -6.403731 10.660984 2.290695 -23.600151 -8.731595 0.000000 -0.000001 -0.000000 -0.040673 0.540624 1.659815 0.031283 -0.085262 5.980990 -0.000000 0.000000 -0.000001 0.336135 -5.915521 4.115345 1.408631 -4.226291 24.690673 0.000002 0.000001 -0.000001 1.203689 -11.744975 5.423662 1.802456 -3.766677 28.137031 -0.000001 0.000000 -0.000002 2.121595 -19.149361 11.314819 3.343306 -2.133783 19.192020 -0.000000 -0.000002 -0.000001 -0.000001 0.000003 0.000000 -0.000003 0.000000 -0.000000 -0.000001 -0.000001 0.000001 -0.000003 0.000000 0.000001 -0.000003 0.000000 0.000001 -0.000003 0.000000 -0.000000 -0.000001 -0.000001 0.000001 -0.000003 0.000000 0.000001 -0.000003 0.000000 0.000001 -0.000003 0.000000 -0.000000 -0.000001 -0.000001 0.000001 0.000001 -0.000002 0.000001 0.000001 -0.000002 0.000001 0.000001 -0.000002 0.000001 
1.225489 34.961372 -1.448595 46.254079 -51.404533 36.096570 0.000002 -0.000002 0.000001 -106.100172 -22.988513 37.599543 115.075095 -19.556172 0.888228 -29.013971 -5.652660 -15.138756 0.000000 0.000001 -0.000000 0.000001 -0.000001 -0.000003 -119.818880 -0.695029 -30.469911 129.025593 3.809227 -2.591071 -27.372810 -3.050646 0.633105 -0.000001 0.000000 -0.000000 0.000001 -0.000000 -0.000001 2.749033 -0.759878 -1.149483 7.231069 -2.224530 -2.846560 7.248490 -2.258122 -2.826564 9.779385 26.377832 -15.168264 -43.321472 24.502465 3.958090 -0.000000 0.000000 -0.000000 -0.000000 0.000000 -0.000000 -0.000000 0.000000 -0.000000 -0.000000 0.000000 -0.000000 -0.000000 0.000000 -0.000000 -0.000000 0.000000 -0.000000 -0.000000 0.000000 -0.000000 -0.000000 0.000000 -0.000000 -0.000000 0.000000 -0.000000 10.247504 -6.994541 -9.734117 -72.264139 -12.562264 -29.787667 34.590885 -15.573875 14.011826 5.750505 -10.183513 -2.932737 40.109876 -15.297204 -0.360543 5.639915 28.098218 11.338830 -0.000002 0.000001 -0.000001 6.882175 2.840107 -61.140554 8.248004 7.639994 -89.898000 0.000000 -0.000001 -0.000004 -2.345646 4.688970 -62.655306 8.754031 9.897111 -87.051253 -0.000000 0.000001 -0.000001 -9.042475 10.045707 -60.766212 8.524055 9.508784 -66.893206 -0.000001 0.000000 -0.000003 -17.946858 14.755135 -51.486085 8.857215 8.678408 -84.811682 0.000001 -0.000001 0.000003 0.000001 -0.000001 0.000003 9.147923 16.115737 26.267128 1.141898 1.060796 19.168431 -6.744373 21.061867 3.949345 -3.977998 0.287485 3.850540 -2.138866 -6.407368 10.661317 2.298628 -23.627928 -8.735887 0.000001 -0.000001 0.000002 -0.041349 0.541701 1.717905 0.030216 -0.083117 6.037517 0.000001 0.000001 0.000000 0.336465 -5.915700 4.199493 1.408142 -4.225800 24.690359 0.000003 0.000000 0.000004 1.203901 -11.745927 5.496280 1.802673 -3.767298 28.209508 0.000002 0.000003 -0.000002 2.121025 -19.150964 11.313045 3.343437 -2.133660 19.475950 -0.000000 0.000001 0.000001 0.000004 0.000002 0.000001 -0.000003 0.000001 -0.000002 -0.000003 -0.000001 -0.000000 -0.000003 0.000001 -0.000002 -0.000003 0.000001 -0.000002 -0.000003 0.000001 -0.000002 -0.000003 -0.000001 -0.000000 -0.000003 0.000001 -0.000002 -0.000003 0.000001 -0.000002 -0.000003 0.000001 -0.000002 -0.000003 -0.000001 -0.000000 0.000002 -0.000002 0.000001 0.000002 -0.000002 0.000001 0.000002 -0.000002 0.000001 
